<svg width="200" height="200" viewBox="0 0 200 200" xmlns="http://www.w3.org/2000/svg">
  <defs>
    <!-- Circuit pattern background -->
    <pattern id="circuit" x="0" y="0" width="40" height="40" patternUnits="userSpaceOnUse">
      <path d="M10 10h20M30 10v20M10 30h20" stroke="#1e40af" stroke-width="0.5" fill="none" opacity="0.3"/>
      <circle cx="10" cy="10" r="1" fill="#06b6d4" opacity="0.6"/>
      <circle cx="30" cy="30" r="1" fill="#06b6d4" opacity="0.6"/>
    </pattern>
    
    <!-- Gradients -->
    <linearGradient id="shieldGrad" x1="0%" y1="0%" x2="0%" y2="100%">
      <stop offset="0%" style="stop-color:#06b6d4;stop-opacity:1" />
      <stop offset="100%" style="stop-color:#0284c7;stop-opacity:1" />
    </linearGradient>
    
    <linearGradient id="arrowGrad" x1="0%" y1="0%" x2="100%" y2="100%">
      <stop offset="0%" style="stop-color:#f472b6;stop-opacity:1" />
      <stop offset="100%" style="stop-color:#ec4899;stop-opacity:1" />
    </linearGradient>
    
    <!-- Glow filters -->
    <filter id="glow">
      <feGaussianBlur stdDeviation="3" result="coloredBlur"/>
      <feMerge> 
        <feMergeNode in="coloredBlur"/>
        <feMergeNode in="SourceGraphic"/>
      </feMerge>
    </filter>
  </defs>
  
  <!-- Background with circuit pattern -->
  <rect width="200" height="200" fill="url(#circuit)" opacity="0.2"/>
  
  <!-- Shield outline -->
  <path d="M100 20 
           C120 20 140 25 150 35
           C155 45 155 60 155 80
           C155 120 135 150 100 170
           C65 150 45 120 45 80
           C45 60 45 45 50 35
           C60 25 80 20 100 20 Z" 
        fill="none" 
        stroke="url(#shieldGrad)" 
        stroke-width="3" 
        filter="url(#glow)"/>
  
  <!-- Desk/Table -->
  <rect x="70" y="110" width="60" height="8" fill="url(#shieldGrad)" rx="2"/>
  <rect x="75" y="118" width="6" height="25" fill="url(#shieldGrad)" rx="1"/>
  <rect x="119" y="118" width="6" height="25" fill="url(#shieldGrad)" rx="1"/>
  <rect x="80" y="125" width="40" height="3" fill="url(#shieldGrad)" rx="1"/>
  
  <!-- Desk Lamp -->
  <g filter="url(#glow)">
    <!-- Lamp Base -->
    <circle cx="90" cy="118" r="4" fill="url(#shieldGrad)"/>
    
    <!-- Lamp Arm -->
    <line x1="90" y1="114" x2="95" y2="95" stroke="url(#shieldGrad)" stroke-width="2" stroke-linecap="round"/>
    <line x1="95" y1="95" x2="105" y2="85" stroke="url(#shieldGrad)" stroke-width="2" stroke-linecap="round"/>
    
    <!-- Lamp Head -->
    <path d="M105 85 L115 80 L118 88 L108 93 Z" fill="url(#shieldGrad)"/>
    
    <!-- Light beam -->
    <path d="M115 80 L125 75 L130 85 L120 90 Z" fill="#06b6d4" opacity="0.3"/>
    
    <!-- Lamp joints -->
    <circle cx="95" cy="95" r="2" fill="url(#shieldGrad)"/>
    <circle cx="105" cy="85" r="2" fill="url(#shieldGrad)"/>
  </g>
  
  <!-- Upward Arrow -->
  <g filter="url(#glow)">
    <path d="M130 45 L145 70 L138 70 L138 85 L122 85 L122 70 L115 70 Z" 
          fill="url(#arrowGrad)" 
          stroke="#ec4899" 
          stroke-width="1"/>
  </g>
  
  <!-- Additional tech elements -->
  <circle cx="65" cy="60" r="2" fill="#06b6d4" opacity="0.8"/>
  <circle cx="135" cy="95" r="1.5" fill="#f472b6" opacity="0.8"/>
  <circle cx="75" cy="85" r="1" fill="#06b6d4" opacity="0.6"/>
  
  <!-- Subtle connecting lines -->
  <path d="M65 60 L75 85" stroke="#06b6d4" stroke-width="0.5" opacity="0.4"/>
  <path d="M135 95 L130 70" stroke="#f472b6" stroke-width="0.5" opacity="0.4"/>
</svg>